<svg width="32" height="32" viewBox="0 0 32 32" fill="none" xmlns="http://www.w3.org/2000/svg">
<rect width="32" height="32" rx="4" fill="#89D2DC"/>
<path d="M20.7404 25.5369H15.9998H11.2592C10.3162 25.5369 9.41185 25.1601 8.74507 24.4894C8.07829 23.8187 7.70369 22.909 7.70369 21.9605V10.0389H6.48842C6.17409 10.0389 5.33337 10.0389 5.33337 10.0389L5.33338 21.9605C5.33338 23.5414 5.9577 25.0575 7.069 26.1754C8.1803 27.2933 9.68755 27.9213 11.2592 27.9213H20.7404V26.7545V25.5369ZM26.6662 12.3517C26.6662 12.3517 26.6728 12.13 26.6379 12.0255L26.5951 11.9225C26.5381 11.7999 26.4621 11.6873 26.3699 11.5887L19.259 4.43577C19.161 4.34304 19.049 4.26658 18.9271 4.20926C18.9271 4.20926 18.7907 4.14332 18.6978 4.11766C18.6001 4.09067 18.4412 4.07812 18.4412 4.07812H13.6295C12.6865 4.07813 11.7822 4.45493 11.1154 5.12565C10.4486 5.79637 10.074 6.70606 10.074 7.65459V19.5762C10.074 20.5247 10.4486 21.4344 11.1154 22.1051C11.7822 22.7758 12.6865 23.1526 13.6295 23.1526H23.1107C24.0537 23.1526 24.9581 22.7758 25.6248 22.1051C26.2916 21.4344 26.6662 20.5247 26.6662 19.5762V12.4232C26.6662 12.4232 26.6662 12.4232 26.6662 12.3517ZM19.5553 8.14338L22.6248 11.2311H20.7404C20.4261 11.2311 20.1246 11.1055 19.9024 10.8819C19.6801 10.6583 19.5553 10.3551 19.5553 10.0389V8.14338ZM24.2959 19.5762C24.2959 19.8923 24.171 20.1956 23.9488 20.4191C23.7265 20.6427 23.4251 20.7683 23.1107 20.7683H13.6295C13.3152 20.7683 13.0137 20.6427 12.7914 20.4191C12.5692 20.1956 12.4443 19.8923 12.4443 19.5762V7.65459C12.4443 7.33842 12.5692 7.03519 12.7914 6.81161C13.0137 6.58804 13.3152 6.46244 13.6295 6.46244H17.1849V10.0389C17.1849 10.9874 17.5595 11.8971 18.2263 12.5679C18.8931 13.2386 19.7975 13.6154 20.7404 13.6154H24.2959V19.5762Z" fill="#314D6B"/>
</svg>
