<svg width="16" height="16" viewBox="0 0 16 16" fill="none" xmlns="http://www.w3.org/2000/svg">
<path d="M8.47304 11.3602L12.2397 7.58682C12.3022 7.52484 12.3518 7.45111 12.3856 7.36987C12.4195 7.28863 12.4369 7.20149 12.4369 7.11348C12.4369 7.02548 12.4195 6.93834 12.3856 6.8571C12.3518 6.77586 12.3022 6.70213 12.2397 6.64015C12.1148 6.51598 11.9458 6.44629 11.7697 6.44629C11.5936 6.44629 11.4246 6.51598 11.2997 6.64015L7.96637 9.94015L4.66637 6.64015C4.54147 6.51598 4.3725 6.44629 4.19637 6.44629C4.02025 6.44629 3.85128 6.51598 3.72637 6.64015C3.66338 6.70189 3.61327 6.77552 3.57894 6.85677C3.54461 6.93802 3.52674 7.02528 3.52637 7.11348C3.52674 7.20169 3.54461 7.28894 3.57894 7.37019C3.61327 7.45144 3.66338 7.52507 3.72637 7.58682L7.49304 11.3602C7.55547 11.4278 7.63124 11.4818 7.71557 11.5188C7.7999 11.5557 7.89097 11.5748 7.98304 11.5748C8.07511 11.5748 8.16618 11.5557 8.25051 11.5188C8.33484 11.4818 8.41061 11.4278 8.47304 11.3602Z" fill="#95B0B4"/>
</svg>
