<svg width="40" height="40" viewBox="0 0 40 40" fill="none" xmlns="http://www.w3.org/2000/svg">
<rect width="40" height="40" rx="20" fill="#89D2DC"/>
<g clip-path="url(#clip0_687_49313)">
<path d="M12.9962 19.4129C12.9962 18.8589 13.4512 18.4039 14.0042 18.4039H15.7044C16.2583 18.4039 16.7325 18.8589 16.7325 19.433V25.8449C16.9303 25.7853 17.1674 25.7258 17.4448 25.6663C17.8202 25.5674 18.0976 25.2314 18.0976 24.8349V16.8794C18.0976 16.3255 18.5527 15.8503 19.1258 15.8503H20.826C21.3799 15.8503 21.8541 16.3053 21.8541 16.8794V24.2618C21.8541 24.2618 22.2698 24.0833 22.6845 23.9057C23.0013 23.7674 23.1991 23.4708 23.1991 23.1137V14.3076C23.1991 13.7537 23.6541 13.2785 24.208 13.2785H25.9082C26.4621 13.2785 26.9172 13.7335 26.9172 14.3076V21.5709C28.3802 20.5025 29.8836 19.2161 31.0701 17.6724C31.4263 17.2173 31.5252 16.6231 31.3274 16.0692C29.152 9.81574 22.3111 6.4903 16.0624 8.66758C9.81381 10.8449 6.49221 17.6916 8.66661 23.946C8.90373 24.6583 9.22053 25.3313 9.59589 25.9841C9.89253 26.4986 10.4464 26.7953 11.0397 26.7357C11.3565 26.7156 11.752 26.6762 12.2455 26.6167C12.6804 26.5773 12.9972 26.201 12.9972 25.7652L12.9962 19.4129Z" fill="#314D6B"/>
<path d="M12.957 29.7038C18.3158 33.6023 25.8105 32.4148 29.7052 27.0522C31.1884 24.994 31.9986 22.5201 31.9986 19.9876C31.9986 19.7102 31.9785 19.4337 31.9593 19.1562C27.5903 25.7063 19.5023 28.7735 12.957 29.7038Z" fill="#314D6B"/>
</g>
<defs>
<clipPath id="clip0_687_49313">
<rect width="24" height="24" fill="white" transform="translate(8 8)"/>
</clipPath>
</defs>
</svg>
