<svg width="40" height="40" viewBox="0 0 40 40" fill="none" xmlns="http://www.w3.org/2000/svg">
<rect width="40" height="40" rx="20" fill="#89D2DC"/>
<g clip-path="url(#clip0_687_49318)">
<path d="M18.801 25.7749C19.176 25.7749 19.5135 26.0749 19.5135 26.4874C19.5135 26.8624 19.2135 27.1999 18.801 27.1999C18.426 27.1999 18.0885 26.8999 18.0885 26.4874C18.0885 26.0749 18.426 25.7749 18.801 25.7749ZM29.826 21.4249C29.451 21.4249 29.1135 21.1249 29.1135 20.7124C29.1135 20.3374 29.4135 19.9999 29.826 19.9999C30.201 19.9999 30.5385 20.2999 30.5385 20.7124C30.5385 21.0874 30.201 21.4249 29.826 21.4249ZM29.826 18.5374C28.626 18.5374 27.651 19.5124 27.651 20.7124C27.651 20.9374 27.6885 21.1624 27.7635 21.3874L20.601 25.2124C20.1885 24.6124 19.5135 24.2749 18.801 24.2749C17.976 24.2749 17.226 24.7624 16.851 25.4749L10.401 22.0999C9.72603 21.7249 9.20103 20.6374 9.27603 19.5874C9.31353 19.0624 9.50103 18.6499 9.76353 18.4999C9.95103 18.3874 10.1385 18.4249 10.401 18.5374L10.4385 18.5749C12.1635 19.4749 17.751 22.3999 17.976 22.5124C18.351 22.6624 18.5385 22.7374 19.176 22.4374L30.726 16.4374C30.9135 16.3624 31.101 16.2124 31.101 15.9499C31.101 15.6124 30.7635 15.4624 30.7635 15.4624C30.0885 15.1624 29.076 14.6749 28.101 14.2249C26.001 13.2499 23.601 12.1249 22.551 11.5624C21.651 11.0749 20.901 11.4874 20.7885 11.5624L20.526 11.6749C15.7635 14.0749 9.46353 17.1874 9.08853 17.4124C8.45103 17.7874 8.03853 18.5749 8.00103 19.5499C7.92603 21.0874 8.71353 22.6999 9.83853 23.2624L16.6635 26.7874C16.8135 27.8374 17.751 28.6624 18.801 28.6624C20.001 28.6624 20.9385 27.7249 20.976 26.5249L28.476 22.4749C28.851 22.7749 29.3385 22.9249 29.826 22.9249C31.026 22.9249 32.001 21.9499 32.001 20.7499C32.001 19.5124 31.026 18.5374 29.826 18.5374Z" fill="#314D6B"/>
</g>
<defs>
<clipPath id="clip0_687_49318">
<rect width="24" height="24" fill="white" transform="translate(8 8)"/>
</clipPath>
</defs>
</svg>
