<svg width="120" height="36" viewBox="0 0 120 36" fill="none" xmlns="http://www.w3.org/2000/svg">
<path d="M20.9054 26.2559V28.3199H12.7293C11.374 28.3199 10.0742 27.7763 9.11586 26.8086C8.15753 25.8409 7.61915 24.5284 7.61915 23.1599L7.61914 12.8399H9.66319V23.1599C9.66319 23.981 9.98622 24.7685 10.5612 25.3491C11.1362 25.9297 11.9161 26.2559 12.7293 26.2559H20.9054Z" fill="#89D2DC"/>
<path fill-rule="evenodd" clip-rule="evenodd" d="M26.0155 14.842V21.0959C26.0155 21.917 25.6925 22.7045 25.1175 23.2851C24.5425 23.8657 23.7626 24.1919 22.9495 24.1919H14.7733C13.9601 24.1919 13.1803 23.8657 12.6053 23.2851C12.0303 22.7045 11.7072 21.917 11.7072 21.0959V10.7759C11.7072 9.95482 12.0303 9.16734 12.6053 8.58673C13.1803 8.00612 13.9601 7.67993 14.7733 7.67993H18.7322C18.941 7.67993 19.1564 7.69718 19.3417 7.79345C19.4618 7.85586 19.6279 7.98953 19.6279 7.98953L25.76 14.1815C25.8395 14.2668 25.9051 14.3644 25.9542 14.4705C26.0033 14.5766 26.0155 14.842 26.0155 14.842ZM22.5304 13.8719L19.8834 11.1991V12.8399C19.8834 13.1136 19.9911 13.3761 20.1827 13.5697C20.3744 13.7632 20.6344 13.8719 20.9054 13.8719H22.5304ZM23.6721 21.8257C23.8638 21.6321 23.9715 21.3696 23.9715 21.0959V15.9359H20.9054C20.0922 15.9359 19.3124 15.6097 18.7374 15.0291C18.1624 14.4485 17.8393 13.661 17.8393 12.8399V9.74393H14.7733C14.5022 9.74393 14.2423 9.85266 14.0506 10.0462C13.8589 10.2397 13.7513 10.5022 13.7513 10.7759V21.0959C13.7513 21.3696 13.8589 21.6321 14.0506 21.8257C14.2423 22.0192 14.5022 22.1279 14.7733 22.1279H22.9495C23.2205 22.1279 23.4805 22.0192 23.6721 21.8257Z" fill="#89D2DC"/>
<path d="M94.842 8.73042H97.3571V23.7726H94.842V8.73042Z" fill="#89D2DC"/>
<path d="M48.2478 21.1549C48.9572 20.2302 49.3764 19.1688 49.5054 17.9706H46.9323C46.7904 18.752 46.4809 19.4293 46.0037 20.0023C45.5393 20.5623 44.9331 20.9921 44.1851 21.2916C43.437 21.5912 42.5729 21.7409 41.5927 21.7409C40.4577 21.7409 39.471 21.5261 38.6327 21.0963C37.8072 20.6665 37.1688 20.0544 36.7174 19.26C36.2659 18.4655 36.0402 17.5278 36.0402 16.4469C36.0402 15.3659 36.2659 14.4282 36.7174 13.6338C37.1688 12.8394 37.8072 12.2272 38.6327 11.7975C39.471 11.3677 40.4577 11.1528 41.5927 11.1528C42.5729 11.1528 43.437 11.3091 44.1851 11.6217C44.9331 11.9212 45.5393 12.351 46.0037 12.911C46.4809 13.471 46.7904 14.1417 46.9323 14.9231H49.5054C49.3764 13.7119 48.9572 12.6505 48.2478 11.7389C47.5514 10.8272 46.6356 10.1174 45.5006 9.60951C44.3657 9.10159 43.0694 8.84763 41.612 8.84763C39.9869 8.84763 38.5617 9.16671 37.3365 9.80486C36.1112 10.443 35.1568 11.3351 34.4732 12.4812C33.7896 13.6143 33.4478 14.9361 33.4478 16.4469C33.4478 17.9576 33.7896 19.286 34.4732 20.4321C35.1568 21.5651 36.1112 22.4507 37.3365 23.0889C38.5617 23.727 39.9869 24.0461 41.612 24.0461C43.0694 24.0461 44.3657 23.7922 45.5006 23.2842C46.6356 22.7763 47.5514 22.0665 48.2478 21.1549Z" fill="#89D2DC"/>
<path fill-rule="evenodd" clip-rule="evenodd" d="M54.1119 23.3233C55.1179 23.8052 56.2852 24.0461 57.6136 24.0461C58.9421 24.0461 60.1028 23.8052 61.096 23.3233C62.102 22.8284 62.8823 22.1447 63.4369 21.2721C64.0044 20.3995 64.2881 19.3902 64.2881 18.2441C64.2881 17.085 64.0044 16.0757 63.4369 15.2161C62.8823 14.3436 62.102 13.6663 61.096 13.1845C60.1028 12.6896 58.9421 12.4421 57.6136 12.4421C56.2852 12.4421 55.1179 12.6896 54.1119 13.1845C53.1188 13.6663 52.3385 14.3436 51.771 15.2161C51.2164 16.0757 50.9391 17.085 50.9391 18.2441C50.9391 19.3902 51.2164 20.3995 51.771 21.2721C52.3385 22.1447 53.1188 22.8284 54.1119 23.3233ZM59.7998 21.5847C59.1936 21.8972 58.4649 22.0535 57.6136 22.0535C56.7753 22.0535 56.0466 21.8972 55.4275 21.5847C54.8084 21.2721 54.3312 20.8358 53.9958 20.2758C53.6605 19.7028 53.4928 19.0255 53.4928 18.2441C53.4928 17.4627 53.6605 16.792 53.9958 16.232C54.3312 15.659 54.8084 15.2162 55.4275 14.9036C56.0466 14.591 56.7753 14.4347 57.6136 14.4347C58.4649 14.4347 59.1936 14.591 59.7998 14.9036C60.4188 15.2162 60.8961 15.659 61.2314 16.232C61.5667 16.792 61.7344 17.4627 61.7344 18.2441C61.7344 19.0255 61.5667 19.7028 61.2314 20.2758C60.8961 20.8358 60.4188 21.2721 59.7998 21.5847Z" fill="#89D2DC"/>
<path fill-rule="evenodd" clip-rule="evenodd" d="M66.3325 12.7156H68.8475V15.6062C68.9275 15.466 69.0113 15.3294 69.099 15.1966C69.6665 14.324 70.363 13.6468 71.1884 13.1649C72.0268 12.6831 72.9554 12.4421 73.9743 12.4421C75.0448 12.4421 75.9928 12.6896 76.8183 13.1845C77.6437 13.6663 78.2886 14.3436 78.7529 15.2161C79.2172 16.0757 79.4494 17.085 79.4494 18.2441C79.4494 19.3902 79.2172 20.3995 78.7529 21.2721C78.2886 22.1447 77.6437 22.8284 76.8183 23.3233C75.9928 23.8052 75.0448 24.0461 73.9743 24.0461C72.9554 24.0461 72.0332 23.8052 71.2078 23.3233C70.3823 22.8414 69.6794 22.1642 69.099 21.2916C69.0113 21.1568 68.9275 21.0186 68.8475 20.8769V26.996H66.3325V12.7156ZM76.8956 18.2441C76.8956 17.5018 76.7409 16.8506 76.4313 16.2906C76.1347 15.7176 75.722 15.2748 75.1932 14.9622C74.6644 14.6366 74.0582 14.4738 73.3746 14.4738C72.691 14.4738 72.0461 14.6366 71.44 14.9622C70.8467 15.2748 70.3243 15.7176 69.8729 16.2906C69.4215 16.8506 69.0539 17.5018 68.7701 18.2441C69.0539 18.9865 69.4215 19.6442 69.8729 20.2172C70.3243 20.7772 70.8467 21.22 71.44 21.5456C72.0461 21.8582 72.691 22.0144 73.3746 22.0144C74.0582 22.0144 74.6644 21.8582 75.1932 21.5456C75.722 21.22 76.1347 20.7772 76.4313 20.2172C76.7409 19.6442 76.8956 18.9865 76.8956 18.2441Z" fill="#89D2DC"/>
<path d="M81.8829 27.0155C82.4117 27.1848 82.9986 27.2694 83.6435 27.2694C84.211 27.2694 84.7398 27.1783 85.2299 26.996C85.7329 26.8136 86.1907 26.5206 86.6035 26.1169C87.0291 25.7262 87.3967 25.2052 87.7062 24.554L93.3747 12.7156H90.7049L86.6496 21.7405L82.6375 12.7156H79.8709L84.901 23.421H85.8945L85.7716 23.6945C85.5007 24.2936 85.1589 24.7103 84.7462 24.9447C84.3335 25.1922 83.8627 25.3159 83.3339 25.3159C82.7793 25.3159 82.2763 25.2443 81.8249 25.101C81.3864 24.9578 80.9221 24.7299 80.432 24.4173V26.3513C80.8834 26.6378 81.367 26.8592 81.8829 27.0155Z" fill="#89D2DC"/>
<path d="M100.889 27.0155C101.418 27.1848 102.005 27.2694 102.65 27.2694C103.217 27.2694 103.746 27.1783 104.236 26.996C104.739 26.8136 105.197 26.5206 105.61 26.1169C106.035 25.7262 106.403 25.2052 106.713 24.554L112.381 12.7156H109.711L105.656 21.7405L101.644 12.7156H98.8773L101.392 18.0683L103.907 23.421H104.901L104.778 23.6945C104.507 24.2936 104.165 24.7103 103.753 24.9447C103.34 25.1922 102.869 25.3159 102.34 25.3159C101.786 25.3159 101.283 25.2443 100.831 25.101C100.393 24.9578 99.9284 24.7299 99.4383 24.4173V26.3513C99.8897 26.6378 100.373 26.8592 100.889 27.0155Z" fill="#89D2DC"/>
</svg>
