<svg width="58" height="57" viewBox="0 0 58 57" fill="none" xmlns="http://www.w3.org/2000/svg">
<path d="M50.6637 37.8388C50.2565 37.2226 49.7204 36.7021 49.0924 36.3134C48.4644 35.9246 47.7595 35.6769 47.0264 35.5873L41.0485 34.8552V28.9753C41.0485 26.478 39.0161 24.4455 36.5205 24.4455C34.025 24.4455 31.9926 26.478 31.9926 28.9753V37.6161L30.3396 36.5937C29.4048 36.0116 28.2869 35.798 27.2034 35.9946C26.1199 36.1911 25.1483 36.7837 24.4775 37.6571C23.8474 38.4753 23.5211 39.487 23.5542 40.5192C23.5874 41.5513 23.9779 42.54 24.6592 43.3161L32.0959 51.761C32.9349 52.7122 34.1444 53.259 35.4126 53.259H44.7606C46.72 53.259 48.4656 51.9445 49.0089 50.0617L51.3103 42.0657C51.7235 40.6264 51.4884 39.0856 50.6637 37.8388ZM48.2287 41.1768L45.9273 49.1729C45.8539 49.4258 45.7006 49.6482 45.4903 49.8068C45.28 49.9654 45.024 50.0517 44.7606 50.0528H35.4126C35.2401 50.0528 35.0696 50.0161 34.9124 49.9452C34.7551 49.8742 34.6148 49.7706 34.5006 49.6413L27.0639 41.1982C26.866 40.9749 26.7551 40.6879 26.7516 40.3896C26.748 40.0913 26.852 39.8017 27.0444 39.5737C27.2369 39.3458 27.505 39.1948 27.7997 39.1483C28.0944 39.1019 28.3959 39.1631 28.6492 39.3208L32.7479 41.859C32.9907 42.0095 33.2692 42.0923 33.5548 42.099C33.8403 42.1056 34.1225 42.0359 34.372 41.8969C34.6216 41.758 34.8295 41.5549 34.9742 41.3087C35.1189 41.0624 35.1953 40.782 35.1953 40.4964V28.977C35.1953 28.626 35.3347 28.2894 35.5829 28.0412C35.8311 27.793 36.1678 27.6536 36.5188 27.6536C36.8698 27.6536 37.2064 27.793 37.4546 28.0412C37.7028 28.2894 37.8422 28.626 37.8422 28.977V36.2748C37.842 36.6666 37.9851 37.0449 38.2447 37.3382C38.5043 37.6316 38.8623 37.8198 39.2512 37.8673L46.6363 38.7721C47.1956 38.8398 47.6765 39.1373 47.9882 39.6093C48.3 40.0778 48.3855 40.6353 48.2287 41.1768ZM23.5584 30.4947C23.5584 30.9199 23.7273 31.3276 24.0279 31.6283C24.3286 31.9289 24.7363 32.0978 25.1615 32.0978C25.5867 32.0978 25.9945 31.9289 26.2951 31.6283C26.5957 31.3276 26.7646 30.9199 26.7646 30.4947V29.6611C30.117 28.7063 30.6086 26.4797 30.6371 25.4056C30.6941 23.1702 28.9698 21.6365 25.5124 20.8492C23.1131 20.3041 22.8904 19.7181 22.9065 19.4919C22.9937 18.1987 25.5944 17.9636 26.8003 17.9974C26.8003 18.4226 26.9692 18.8304 27.2698 19.131C27.5705 19.4317 27.9782 19.6005 28.4034 19.6005C28.8286 19.6005 29.2363 19.4317 29.537 19.131C29.8376 18.8304 30.0065 18.4226 30.0065 17.9974C30.0065 17.1121 29.6414 16.2518 29.0037 15.6373C28.709 15.3456 28.3593 15.1153 27.975 14.9596C27.5907 14.804 27.1793 14.7262 26.7646 14.7306V14.3263C26.7646 13.9011 26.5957 13.4933 26.2951 13.1927C25.9945 12.892 25.5867 12.7231 25.1615 12.7231C24.7363 12.7231 24.3286 12.892 24.0279 13.1927C23.7273 13.4933 23.5584 13.9011 23.5584 14.3263V15.1652C20.4697 16.0434 19.7928 18.0045 19.7073 19.2728C19.5488 21.5884 21.2641 23.1702 24.8017 23.9735C27.3774 24.5595 27.4344 25.2436 27.4326 25.3201C27.397 26.6917 24.2406 26.8752 23.5388 26.8752H23.537C23.5156 26.8556 23.5156 26.8378 23.5156 26.8271C23.5154 26.4019 23.3463 25.9942 23.0455 25.6938C22.7447 25.3933 22.3368 25.2246 21.9116 25.2248C21.4865 25.2251 21.0788 25.3942 20.7783 25.695C20.4778 25.9958 20.3092 26.4037 20.3094 26.8289C20.3094 27.7231 20.6639 28.5602 21.3087 29.1819C21.9107 29.7644 22.7248 30.0903 23.5602 30.101V30.4947H23.5584Z" fill="#89D2DC"/>
<path d="M18.941 36.5616C16.1912 35.356 13.8522 33.3753 12.2101 30.8616C10.568 28.348 9.69384 25.4103 9.69453 22.4078C9.69453 13.8828 16.6378 6.94658 25.1736 6.94658C29.0036 6.93429 32.7009 8.34892 35.5446 10.9146C38.3882 13.4803 40.1744 17.0132 40.5547 20.8243C40.5974 21.2473 40.8065 21.6361 41.1359 21.905C41.4652 22.1739 41.888 22.301 42.311 22.2582C42.7341 22.2155 43.1228 22.0064 43.3917 21.677C43.6606 21.3476 43.7877 20.9249 43.7449 20.5019C43.287 15.8993 41.131 11.6324 37.6974 8.53336C34.2638 5.43436 29.7989 3.72558 25.1736 3.74033C14.8708 3.74033 6.48828 12.114 6.48828 22.4078C6.48698 26.0335 7.54252 29.5809 9.52577 32.616C11.509 35.6511 14.3339 38.0424 17.6549 39.4971C18.0417 39.6532 18.4739 39.6523 18.8601 39.4949C19.2462 39.3374 19.5558 39.0357 19.7231 38.6538C19.8904 38.2718 19.9024 37.8397 19.7563 37.4491C19.6103 37.0585 19.3179 36.7402 18.941 36.5616Z" fill="#89D2DC"/>
</svg>
