<svg width="68" height="68" viewBox="0 0 68 68" fill="none" xmlns="http://www.w3.org/2000/svg">
<rect width="68" height="68" rx="34" fill="#89D2DC"/>
<path d="M49.397 19.6412C48.97 19.2859 48.4545 19.053 47.9056 18.9674C47.3567 18.8818 46.7949 18.9465 46.2798 19.1549L19.3985 30.0079C18.8236 30.2444 18.3343 30.6502 17.9954 31.1713C17.6565 31.6925 17.4841 32.3043 17.5011 32.9257C17.5182 33.5471 17.7237 34.1487 18.0906 34.6505C18.4575 35.1523 18.9683 35.5307 19.5552 35.7354L24.9927 37.6265L28.0235 47.649C28.0647 47.7829 28.1244 47.9103 28.2011 48.0276C28.2127 48.0456 28.2291 48.059 28.2414 48.0765C28.3299 48.2 28.4369 48.3091 28.5586 48.4001C28.5932 48.4265 28.6263 48.4512 28.6633 48.4746C28.8057 48.5691 28.9634 48.6382 29.1294 48.6788L29.1472 48.6803L29.1572 48.6846C29.257 48.7049 29.3586 48.7152 29.4605 48.7154C29.4703 48.7154 29.479 48.7107 29.4887 48.7105C29.6424 48.7078 29.7947 48.6814 29.9403 48.632C29.9742 48.6205 30.0032 48.6012 30.0361 48.5873C30.1446 48.5423 30.2475 48.4846 30.3425 48.4154C30.4186 48.3513 30.4947 48.2872 30.5708 48.2232L34.6241 43.7481L40.6695 48.4312C41.2017 48.8455 41.8568 49.0708 42.5313 49.0713C43.2381 49.0704 43.923 48.8266 44.4714 48.3806C45.0197 47.9347 45.3981 47.3138 45.543 46.6221L50.4371 22.5972C50.548 22.0565 50.5098 21.4958 50.3266 20.9751C50.1434 20.4544 49.8221 19.9933 49.397 19.6412ZM30.0552 38.1041C29.8473 38.3112 29.7051 38.5752 29.6465 38.8629L29.1823 41.1189L28.0062 37.2293L34.1041 34.0538L30.0552 38.1041ZM42.5079 46.0596L35.3638 40.5254C35.0649 40.2945 34.69 40.1846 34.3137 40.2177C33.9375 40.2508 33.5875 40.4245 33.3335 40.7041L32.0354 42.1369L32.4942 39.9072L43.1187 29.2827C43.3723 29.0295 43.5268 28.6938 43.5542 28.3364C43.5817 27.9791 43.4802 27.6237 43.2682 27.3347C43.0563 27.0457 42.7478 26.8422 42.3987 26.761C42.0497 26.6798 41.683 26.7263 41.3653 26.8921L26.1174 34.8311L20.5308 32.7867L47.4986 21.9981L42.5079 46.0596Z" fill="#314D6B"/>
</svg>
