<svg width="68" height="68" viewBox="0 0 68 68" fill="none" xmlns="http://www.w3.org/2000/svg">
<rect width="68" height="68" rx="34" fill="#89D2DC"/>
<path d="M50.4866 21.9248C50.4868 21.6599 50.4168 21.3996 50.2836 21.1705C50.1505 20.9415 49.959 20.7518 49.7287 20.6208C49.4984 20.4898 49.2375 20.4221 48.9726 20.4248C48.7077 20.4274 48.4482 20.5002 48.2205 20.6358C47.3426 21.1583 46.3973 21.5585 45.411 21.8253C44.0025 20.6166 42.206 19.9552 40.35 19.962C38.3139 19.9643 36.3583 20.7579 34.8963 22.175C33.4343 23.5922 32.5803 25.5221 32.5146 27.5572C28.5005 26.9171 24.8625 24.822 22.2943 21.6714C22.1395 21.4836 21.9419 21.3359 21.718 21.2405C21.4942 21.1452 21.2507 21.105 21.0081 21.1235C20.7657 21.1435 20.5317 21.2222 20.3265 21.3529C20.1213 21.4836 19.951 21.6623 19.8304 21.8735C19.2117 22.9532 18.8563 24.1637 18.7932 25.4065C18.7301 26.6493 18.961 27.8895 19.4671 29.0263L19.4642 29.0293C19.2367 29.1694 19.049 29.3655 18.9189 29.5989C18.7889 29.8323 18.7209 30.0951 18.7215 30.3623C18.7187 30.5827 18.732 30.803 18.761 31.0215C18.9143 32.9089 19.7507 34.6756 21.1136 35.9902C21.0211 36.1664 20.9647 36.3591 20.9476 36.5573C20.9305 36.7555 20.9531 36.9551 21.014 37.1445C21.6081 38.9957 22.8717 40.5586 24.5574 41.5273C22.8448 42.1896 20.9956 42.4205 19.1727 42.1997C18.8353 42.1574 18.4935 42.2309 18.2034 42.4084C17.9134 42.5858 17.6922 42.8566 17.5762 43.1762C17.4603 43.4959 17.4564 43.8454 17.5652 44.1676C17.674 44.4897 17.8891 44.7653 18.1752 44.9492C21.3103 46.9684 24.9607 48.042 28.6898 48.0415C32.9187 48.0891 37.0448 46.7377 40.4262 44.1977C43.8076 41.6576 46.2547 38.0713 47.387 33.9965C47.9166 32.2215 48.187 30.3792 48.1898 28.5269C48.1898 28.4287 48.1898 28.3276 48.1883 28.2266C48.9715 27.382 49.5782 26.3895 49.9728 25.3074C50.3675 24.2253 50.5422 23.0753 50.4866 21.9248ZM45.5267 26.7427C45.2789 27.0357 45.1535 27.4129 45.1766 27.7959C45.1912 28.0434 45.1898 28.2924 45.1898 28.5269C45.1867 30.0922 44.9573 31.6488 44.5086 33.1485C43.5839 36.6155 41.5224 39.672 38.6542 41.8283C35.7861 43.9847 32.2773 45.1161 28.6898 45.0415C27.4011 45.0419 26.1169 44.8905 24.8636 44.5903C26.4618 44.0753 27.956 43.2813 29.2772 42.2451C29.5206 42.0535 29.6986 41.7913 29.787 41.4945C29.8755 41.1977 29.8698 40.8808 29.771 40.5872C29.6721 40.2937 29.4849 40.038 29.2349 39.8551C28.9849 39.6723 28.6845 39.5713 28.3748 39.5659C27.1281 39.5465 25.9375 39.044 25.054 38.1641C25.2781 38.1216 25.5008 38.0689 25.722 38.0059C26.046 37.9136 26.3296 37.7151 26.527 37.4421C26.7244 37.1691 26.8242 36.8376 26.8104 36.501C26.7965 36.1644 26.6697 35.8423 26.4505 35.5865C26.2313 35.3307 25.9324 35.1561 25.6019 35.0908C24.8782 34.9479 24.1972 34.64 23.6118 34.1911C23.0265 33.7422 22.5526 33.1643 22.2269 32.5024C22.498 32.5394 22.7708 32.5624 23.0443 32.5713C23.3691 32.5762 23.6871 32.4777 23.9523 32.2899C24.2175 32.1021 24.4161 31.8349 24.5194 31.5269C24.6183 31.216 24.6132 30.8814 24.5048 30.5737C24.3965 30.266 24.1907 30.002 23.9188 29.8218C23.259 29.3822 22.7185 28.7859 22.3458 28.0862C21.9731 27.3865 21.7797 26.6053 21.783 25.8125C21.783 25.7129 21.7859 25.6133 21.7918 25.5152C25.1537 28.6505 29.5143 30.4988 34.1053 30.7344C34.3371 30.7435 34.5678 30.6999 34.7802 30.6067C34.9926 30.5136 35.1811 30.3734 35.3314 30.1968C35.4802 30.0185 35.5855 29.808 35.6391 29.582C35.6927 29.3561 35.6932 29.1207 35.6404 28.8946C35.5546 28.5366 35.5109 28.1699 35.51 27.8018C35.5114 26.5186 36.0217 25.2883 36.9291 24.381C37.8365 23.4736 39.0667 22.9633 40.3499 22.9619C41.0101 22.9602 41.6635 23.0953 42.2689 23.3587C42.8742 23.6222 43.4184 24.0083 43.867 24.4927C44.04 24.6788 44.2578 24.8176 44.4995 24.8958C44.7413 24.974 44.9991 24.9891 45.2483 24.9395C45.8645 24.8196 46.4718 24.6581 47.0662 24.4561C46.6608 25.2856 46.1427 26.055 45.5267 26.7427Z" fill="#314D6B"/>
</svg>
