<svg width="263" height="189" viewBox="0 0 263 189" fill="none" xmlns="http://www.w3.org/2000/svg">
<g clip-path="url(#clip0_494_17255)">
<path fill-rule="evenodd" clip-rule="evenodd" d="M57.8915 22.3549C57.0954 21.0306 57.5236 19.3116 58.848 18.5155L78.604 6.64C84.0177 3.38579 91.0504 5.13788 94.3046 10.5516L94.4949 10.8681C95.291 12.1925 94.8627 13.9114 93.5384 14.7075C92.214 15.5036 90.495 15.0753 89.699 13.751L89.5087 13.4344C87.8466 10.6695 84.2519 9.77389 81.4869 11.4359L61.7309 23.3114C60.4065 24.1075 58.6875 23.6793 57.8915 22.3549ZM22.4081 58.8181L28.7835 54.9858C30.1079 54.1897 30.5361 52.4708 29.7401 51.1464C28.944 49.822 27.225 49.3938 25.9007 50.1899L18.726 54.5026C16.5223 55.8273 15.8014 58.6885 17.1317 60.9016L55.207 124.243C56.0031 125.568 57.722 125.996 59.0464 125.2C60.3707 124.404 60.799 122.685 60.0029 121.361L22.4081 58.8181ZM167.364 -31.5805C166.568 -32.9049 166.996 -34.6238 168.321 -35.4199L174.434 -39.0946C176.637 -40.4193 179.502 -39.7135 180.833 -37.5004L239.751 60.5156C241.081 62.7287 240.361 65.59 238.157 66.9146L201.382 89.0205C200.057 89.8166 198.338 89.3883 197.542 88.064C196.746 86.7396 197.174 85.0206 198.499 84.2246L234.475 62.5992L176.517 -33.8182L171.203 -30.624C169.879 -29.8279 168.16 -30.2561 167.364 -31.5805ZM96.749 20.0516C98.0733 19.2555 99.7923 19.6837 100.588 21.0081L109.597 35.9947C110.393 37.3191 109.965 39.0381 108.64 39.8341C107.316 40.6302 105.597 40.202 104.801 38.8776L95.7925 23.891C94.9964 22.5666 95.4246 20.8477 96.749 20.0516ZM111.518 44.6208C112.842 43.8247 114.561 44.253 115.357 45.5773L124.117 60.1499C124.913 61.4743 124.485 63.1932 123.16 63.9893C121.836 64.7854 120.117 64.3572 119.321 63.0328L110.561 48.4602C109.765 47.1358 110.193 45.4169 111.518 44.6208ZM126.033 68.7677C127.357 67.9716 129.076 68.3998 129.872 69.7242L138.759 84.5078C139.555 85.8322 139.126 87.5511 137.802 88.3472C136.478 89.1433 134.759 88.715 133.963 87.3907L125.076 72.6071C124.28 71.2827 124.708 69.5638 126.033 68.7677ZM62.8902 131.594C64.2146 130.798 65.9335 131.227 66.7296 132.551L80.3656 155.236L104.498 140.73L100.171 133.531C99.375 132.207 99.8032 130.488 101.128 129.692C102.452 128.896 104.171 129.324 104.967 130.648L118.742 153.565L122.365 147.248C122.848 146.406 123.732 145.875 124.702 145.843L131.98 145.607L118.332 122.902C117.536 121.577 117.964 119.859 119.288 119.062C120.613 118.266 122.332 118.695 123.128 120.019L127.328 127.006L143.222 117.452L139.17 110.712C138.374 109.387 138.802 107.668 140.126 106.872C141.451 106.076 143.17 106.504 143.966 107.829L148.791 115.856C148.81 115.859 148.83 115.862 148.85 115.865C150.697 116.16 152.581 116.129 154.417 115.774L154.418 115.773C156.244 115.421 158.004 114.751 159.62 113.78L160.682 113.142C163.913 111.199 166.353 108.178 167.576 104.609C167.583 104.59 167.589 104.571 167.596 104.552L162.496 96.0673C161.7 94.7429 162.128 93.024 163.452 92.2279C164.777 91.4318 166.496 91.8601 167.292 93.1844L171.619 100.382L187.308 90.9513C188.633 90.1552 190.352 90.5834 191.148 91.9078C191.944 93.2321 191.515 94.9511 190.191 95.7472L173.273 105.917C173.085 106.03 172.944 106.206 172.873 106.413L172.871 106.419C171.222 111.234 167.929 115.314 163.565 117.938L162.503 118.576C160.321 119.887 157.943 120.791 155.479 121.267L154.949 118.52L155.481 121.267C155.48 121.267 155.48 121.267 155.479 121.267C153.001 121.747 150.457 121.789 147.964 121.39L147.96 121.39C147.741 121.354 147.519 121.398 147.335 121.509L130.211 131.802L139.231 146.808C139.742 147.658 139.765 148.716 139.29 149.587C138.816 150.459 137.915 151.014 136.924 151.046L126.443 151.386L121.226 160.482C120.732 161.343 119.82 161.877 118.828 161.888C117.836 161.898 116.912 161.382 116.401 160.531L107.381 145.525L82.4492 160.512C80.2455 161.837 77.3805 161.131 76.0501 158.918L61.9337 135.434C61.1376 134.11 61.5659 132.391 62.8902 131.594Z" fill="#89D2DC"/>
<path fill-rule="evenodd" clip-rule="evenodd" d="M26.4649 44.5102L50.5405 30.0382C51.8649 29.2421 52.2931 27.5232 51.497 26.1988C50.7009 24.8744 48.982 24.4462 47.6576 25.2423L22.7827 40.1948C20.5759 41.5213 19.862 44.387 21.1885 46.5938L79.3956 143.427C80.7222 145.634 83.5878 146.348 85.7946 145.021L147.426 107.974C149.632 106.648 150.346 103.782 149.02 101.575L144.853 94.6435C144.057 93.3191 142.338 92.8908 141.014 93.6869C139.689 94.483 139.261 96.202 140.057 97.5263L143.743 103.659L83.7111 139.745L26.4649 44.5102ZM106.957 -3.87398C104.192 -2.21194 103.296 1.38284 104.958 4.14781L105.193 4.53788C105.989 5.86224 105.56 7.58119 104.236 8.37728C102.912 9.17336 101.193 8.74511 100.397 7.42075L100.162 7.03068C96.908 1.61699 98.6601 -5.4157 104.074 -8.66991L159.895 -42.2246C162.102 -43.5512 164.968 -42.8372 166.294 -40.6304L184.437 -10.448C185.233 -9.12367 184.805 -7.40471 183.481 -6.60862C182.156 -5.81254 180.437 -6.2408 179.641 -7.56515L161.979 -36.9482L106.957 -3.87398ZM107.743 14.2093C109.068 13.4132 110.787 13.8415 111.583 15.1658L120.253 29.5894C121.049 30.9138 120.621 32.6328 119.297 33.4289C117.972 34.2249 116.253 33.7967 115.457 32.4723L106.787 18.0487C105.991 16.7244 106.419 15.0054 107.743 14.2093ZM122.385 38.5675C123.71 37.7714 125.429 38.1997 126.225 39.5241L134.773 53.7446C135.569 55.069 135.141 56.7879 133.816 57.584C132.492 58.3801 130.773 57.9519 129.977 56.6275L121.429 42.4069C120.633 41.0826 121.061 39.3636 122.385 38.5675ZM187.324 -0.214052C188.649 -1.01014 190.368 -0.581883 191.164 0.742477L224.501 56.2026C225.828 58.4094 225.114 61.2751 222.907 62.6016L161.276 99.6484C159.069 100.975 156.204 100.261 154.877 98.0542L150.541 90.8411C149.745 89.5168 150.174 87.7978 151.498 87.0017C152.822 86.2057 154.541 86.6339 155.337 87.9583L159.193 94.372L219.225 58.2862L186.368 3.62535C185.572 2.30099 186 0.582032 187.324 -0.214052ZM136.858 62.6437C138.182 61.8477 139.901 62.2759 140.697 63.6003L149.457 78.1729C150.253 79.4972 149.825 81.2162 148.5 82.0123C147.176 82.8083 145.457 82.3801 144.661 81.0557L135.901 66.4831C135.105 65.1588 135.533 63.4398 136.858 62.6437Z" fill="#89D2DC"/>
<path fill-rule="evenodd" clip-rule="evenodd" d="M91.8324 17.0849C90.8531 17.6735 90.5364 18.9447 91.1251 19.924C91.7137 20.9033 92.9849 21.2199 93.9642 20.6313L109.223 11.4591C110.202 10.8705 110.519 9.59932 109.93 8.62003C109.342 7.64075 108.07 7.32406 107.091 7.91271L91.8324 17.0849ZM86.3291 22.8068C84.1483 19.1788 85.3215 14.4698 88.9495 12.2889L104.208 3.11678C107.836 0.935959 112.545 2.10916 114.726 5.73716C116.907 9.36516 115.734 14.0742 112.106 16.2551L96.847 25.4272C93.219 27.608 88.51 26.4348 86.3291 22.8068ZM43.4171 51.7333L53.244 68.0813L88.3675 46.9683L78.5405 30.6203L43.4171 51.7333ZM37.6125 50.2872C37.9115 49.0871 38.6749 48.055 39.7349 47.4179L76.457 25.3439C77.5169 24.7067 78.7866 24.5167 79.9867 24.8157C81.1867 25.1147 82.2188 25.8781 82.856 26.9381L93.6436 44.8843C93.6437 44.8845 93.6438 44.8846 93.6439 44.8848C93.9593 45.4095 94.1684 45.9911 94.2591 46.5966C94.3498 47.2022 94.3203 47.8198 94.1723 48.4141C94.0243 49.0083 93.7607 49.5676 93.3966 50.0599C93.0324 50.5523 92.5748 50.9681 92.05 51.2836L55.3276 73.3578C54.2676 73.9949 52.9979 74.1849 51.7979 73.8859C50.5978 73.587 49.5657 72.8235 48.9286 71.7635L38.1407 53.8169C37.5035 52.7569 37.3135 51.4872 37.6125 50.2872ZM118.712 3.20842C117.916 1.88406 118.344 0.165099 119.669 -0.630985L144.086 -15.3085C145.41 -16.1045 147.129 -15.6763 147.925 -14.3519C148.721 -13.0276 148.293 -11.3086 146.969 -10.5125L122.552 4.16494C121.227 4.96103 119.508 4.53278 118.712 3.20842ZM124.16 12.2721C123.364 10.9477 123.793 9.22877 125.117 8.43268L165.036 -15.5632C166.361 -16.3593 168.08 -15.931 168.876 -14.6067C169.672 -13.2823 169.244 -11.5633 167.919 -10.7673L128 13.2286C126.675 14.0247 124.956 13.5964 124.16 12.2721ZM106.552 41.5716C105.572 42.1603 105.256 43.4314 105.844 44.4107C106.433 45.39 107.704 45.7067 108.683 45.118L123.942 35.9459C124.921 35.3572 125.238 34.0861 124.649 33.1068C124.061 32.1275 122.79 31.8108 121.81 32.3995L106.552 41.5716ZM101.048 47.2936C98.8675 43.6656 100.041 38.9565 103.669 36.7757L118.927 27.6035C122.555 25.4227 127.265 26.5959 129.445 30.2239C131.626 33.8519 130.453 38.561 126.825 40.7418L111.566 49.914C107.938 52.0948 103.229 50.9216 101.048 47.2936ZM137.659 23.8675L154.165 51.3258L189.288 30.2128L172.783 2.75449L137.659 23.8675ZM131.855 22.4214C132.154 21.2213 132.917 20.1892 133.977 19.552L170.699 -2.52192C171.759 -3.15907 173.029 -3.34908 174.229 -3.0501C175.429 -2.75112 176.461 -1.98765 177.098 -0.927706L194.565 28.1292C195.202 29.1892 195.392 30.4588 195.093 31.6589C194.794 32.859 194.03 33.8911 192.97 34.5282L156.248 56.6022C155.188 57.2393 153.919 57.4294 152.719 57.1304C151.518 56.8314 150.486 56.0679 149.849 55.008L132.383 25.951C131.746 24.8911 131.556 23.6214 131.855 22.4214ZM56.8595 84.9575C56.0634 83.6331 56.4917 81.9141 57.8161 81.1181L77.7761 69.1199C79.1004 68.3238 80.8194 68.7521 81.6155 70.0765C82.4116 71.4008 81.9833 73.1198 80.659 73.9159L60.6989 85.914C59.3746 86.7101 57.6556 86.2818 56.8595 84.9575ZM62.3078 94.0211C61.5117 92.6968 61.9399 90.9778 63.2643 90.1817L103.184 66.1857C104.508 65.3896 106.227 65.8178 107.023 67.1422C107.82 68.4665 107.391 70.1855 106.067 70.9816L66.1472 94.9777C64.8228 95.7737 63.1039 95.3455 62.3078 94.0211ZM121.271 66.058C120.291 66.6467 119.975 67.9178 120.563 68.8971C121.152 69.8764 122.423 70.1931 123.402 69.6044L138.661 60.4323C139.64 59.8436 139.957 58.5725 139.368 57.5932C138.78 56.6139 137.509 56.2972 136.529 56.8859L121.271 66.058ZM115.767 71.78C113.586 68.152 114.76 63.4429 118.388 61.2621L133.646 52.0899C137.274 49.9091 141.983 51.0823 144.164 54.7103C146.345 58.3383 145.172 63.0474 141.544 65.2282L126.285 74.4004C122.657 76.5812 117.948 75.408 115.767 71.78ZM75.5152 105.131L85.3421 121.48L120.466 100.367L110.639 84.0185L75.5152 105.131ZM69.7106 103.685C70.0095 102.485 70.773 101.453 71.833 100.816L108.555 78.7421C109.615 78.1049 110.885 77.915 112.085 78.2139C113.285 78.5129 114.317 79.2763 114.954 80.3363L125.742 98.2825C125.742 98.2827 125.742 98.2828 125.742 98.283C126.057 98.8077 126.266 99.3893 126.357 99.9948C126.448 100.6 126.418 101.218 126.27 101.812C126.122 102.406 125.859 102.966 125.495 103.458C125.131 103.951 124.673 104.366 124.148 104.682L87.4257 126.756C86.3657 127.393 85.096 127.583 83.896 127.284C82.6959 126.985 81.6638 126.222 81.0266 125.162L70.2387 107.215C69.6016 106.155 69.4116 104.885 69.7106 103.685ZM158.282 69.0364C157.486 67.712 157.914 65.9931 159.238 65.197L183.656 50.5195C184.98 49.7234 186.699 50.1517 187.495 51.476C188.291 52.8004 187.863 54.5194 186.539 55.3154L162.121 69.9929C160.797 70.789 159.078 70.3607 158.282 69.0364ZM135.99 90.5448C135.01 91.1334 134.694 92.4046 135.282 93.3839C135.871 94.3632 137.142 94.6798 138.122 94.0912L153.38 84.919C154.36 84.3304 154.676 83.0592 154.088 82.0799C153.499 81.1006 152.228 80.784 151.248 81.3726L135.99 90.5448ZM130.486 96.2667C128.306 92.6387 129.479 87.9296 133.107 85.7488L148.366 76.5767C151.994 74.3958 156.703 75.5691 158.883 79.1971C161.064 82.8251 159.891 87.5341 156.263 89.715L141.004 98.8871C137.376 101.068 132.667 99.8947 130.486 96.2667ZM163.52 77.7506C162.724 76.4262 163.152 74.7073 164.477 73.9112L204.396 49.9153C205.72 49.1192 207.439 49.5475 208.235 50.8719C209.031 52.1962 208.603 53.9152 207.279 54.7113L167.359 78.7071C166.035 79.5032 164.316 79.075 163.52 77.7506Z" fill="#89D2DC"/>
</g>
<defs>
<clipPath id="clip0_494_17255">
<rect width="191" height="191" fill="white" transform="translate(0 32.4019) rotate(-31.0104)"/>
</clipPath>
</defs>
</svg>
