<svg width="214" height="186" viewBox="0 0 214 186" fill="none" xmlns="http://www.w3.org/2000/svg">
<path d="M146.902 91.0778L139.386 105.481L146.303 102.37L151.063 93.2493L154.327 94.9525C155.476 95.5521 156.893 95.1075 157.492 93.9594C158.091 92.8113 157.645 91.3945 156.496 90.7949L151.156 88.0081L151.152 88.0059L151.148 88.0037L145.596 85.1068C144.447 84.5072 143.03 84.9518 142.431 86.0999C141.832 87.248 142.277 88.6648 143.427 89.2644L146.902 91.0778Z" fill="#89D2DC"/>
<path fill-rule="evenodd" clip-rule="evenodd" d="M174.491 76.5071C172.383 71.3309 168.209 67.2292 163.29 64.746C158.442 62.1327 152.692 61.0563 147.242 62.2879C141.716 63.5365 136.681 67.1208 133.361 73.4618C133.007 74.1388 132.698 74.803 132.432 75.455C129.034 74.5587 126.103 74.0794 123.673 74.0203C120.189 69.2819 112.87 63.3322 101.497 56.5863C100.382 55.9251 98.943 56.2919 98.2822 57.4057C97.6214 58.5194 97.9895 59.9583 99.1043 60.6196C110.223 67.2145 116.769 72.6831 119.708 76.5485L79.5445 153.516C77.7688 151.504 75.4726 149.369 72.8351 147.232C68.7559 143.925 63.7176 140.495 58.1815 137.358C48.2676 131.741 36.5354 126.938 25.6896 125.596L64.7397 50.7633C65.68 48.9612 66.2205 48.7924 66.6315 48.7173C66.9948 48.651 67.5404 48.6473 68.452 48.7741C69.3504 48.899 70.422 49.1212 71.8336 49.4139L71.8919 49.426L71.8922 49.4261C76.8784 50.4608 81.8355 52.1164 89.0859 55.4116C90.2659 55.9479 91.6567 55.4269 92.1924 54.2479C92.7282 53.0689 92.2059 51.6783 91.0259 51.1421C83.5608 47.7492 78.2644 45.9584 72.8426 44.8334L72.6754 44.7987C71.3592 44.5257 70.1516 44.2752 69.0955 44.1283C67.9957 43.9753 66.8727 43.9045 65.7848 44.1031C63.3065 44.5558 61.8171 46.2304 60.5978 48.5547L60.5017 48.5045C54.7942 45.5262 47.7125 47.7557 44.7396 53.4528L6.98088 125.811C3.42386 132.628 5.0665 141.732 13.8887 146.347L13.8892 146.347L70.4744 175.964L70.4791 175.967L93.2825 187.836C94.4322 188.435 95.8489 187.989 96.4469 186.84C97.0448 185.691 96.5975 184.275 95.4478 183.676L74.7283 172.891L78.0347 166.555L129.612 193.469C133.164 195.323 137.527 193.837 139.362 190.321L139.931 189.23C139.948 189.2 139.963 189.17 139.979 189.139L178.48 115.358L178.568 115.404C181.977 117.183 183.315 121.437 181.54 124.839L143.781 197.198C141.329 201.896 135.665 204.595 129.311 201.288L129.311 201.288L105.099 188.693C103.949 188.095 102.533 188.541 101.935 189.69C101.337 190.839 101.785 192.255 102.935 192.853L127.146 205.448L127.146 205.448C135.97 210.04 144.385 206.187 147.943 199.369L185.702 127.01C188.676 121.311 186.442 114.224 180.737 111.247L180.649 111.201C181.858 108.871 182.38 106.691 181.333 104.399C180.873 103.392 180.171 102.511 179.416 101.696C178.69 100.913 177.792 100.064 176.812 99.1387L176.695 99.0279L176.693 99.0261C175.411 97.8082 174.07 96.6345 172.609 95.466C172.833 95.0883 173.052 94.6948 173.265 94.285C176.568 87.9349 176.628 81.7548 174.491 76.5071ZM136.166 79.0048C136.169 78.9964 136.171 78.988 136.174 78.9796C136.183 78.9504 136.191 78.9211 136.198 78.8918C136.497 77.8507 136.926 76.7721 137.519 75.6388C140.225 70.4714 144.144 67.7975 148.28 66.863C152.479 65.9141 157.086 66.7222 161.089 68.8874C161.109 68.8985 161.13 68.9093 161.151 68.9198C165.221 70.9671 168.52 74.2851 170.145 78.2731C171.744 82.2004 171.793 86.9444 169.101 92.1192C168.639 93.0069 168.148 93.7931 167.628 94.4957C167.607 94.5221 167.586 94.5491 167.565 94.5766C167.545 94.6039 167.525 94.6315 167.506 94.6593C164.968 98.0022 161.785 99.4112 158.212 100.909C158.094 100.958 157.975 101.008 157.856 101.058C154.036 102.656 149.714 104.464 146.502 109.195L143.547 107.653L146.303 102.37L139.386 105.481L136.438 103.943C138.482 98.6031 137.493 94.0234 136.619 89.976C136.592 89.8495 136.564 89.7234 136.537 89.5979C135.764 86.0037 135.126 82.7426 136.166 79.0048ZM131.164 79.971C128.169 79.1852 125.747 78.7974 123.87 78.7194L83.7055 155.688C86.3731 155.994 89.4382 156.657 92.7019 157.599C97.7477 159.054 103.443 161.225 109.182 163.972C119.461 168.892 130.112 175.769 137.418 183.9L176.468 109.066C177.409 107.264 177.238 106.725 177.064 106.345C176.91 106.009 176.601 105.558 175.974 104.882C175.357 104.216 174.559 103.463 173.509 102.47L173.508 102.47L173.508 102.469L173.467 102.431L173.463 102.426C172.308 101.33 171.1 100.27 169.782 99.2107C166.734 102.395 163.21 103.901 160.03 105.234L159.939 105.273C156.029 106.911 152.78 108.273 150.363 111.862C152.455 114.305 152.982 117.879 151.409 120.894C149.344 124.852 144.426 126.379 140.474 124.316L127.482 117.537C123.52 115.469 121.971 110.566 124.036 106.61C125.609 103.595 128.838 101.979 132.042 102.301C133.603 98.2657 132.862 94.8216 131.97 90.6775L131.949 90.581C131.271 87.4291 130.545 83.9438 131.164 79.971ZM132.805 107.337C131.139 106.468 129.062 107.123 128.197 108.781C127.334 110.435 127.982 112.508 129.652 113.379L142.643 120.158C144.308 121.027 146.386 120.374 147.248 118.722C148.112 117.066 147.457 114.983 145.796 114.116L132.805 107.337ZM135.078 188.361C128.389 180.331 117.761 173.277 107.158 168.202C101.628 165.556 96.1756 163.482 91.4038 162.105C87.3387 160.933 83.8885 160.303 81.3499 160.202L80.2043 162.397L131.781 189.312C132.877 189.883 134.34 189.512 135.078 188.361ZM76.0431 160.226L77.1888 158.03C75.6561 156.007 73.1669 153.538 69.8807 150.874C66.0231 147.747 61.2031 144.461 55.8693 141.438C45.6425 135.643 33.7774 130.96 23.3684 130.068C22.8434 131.335 23.3753 132.742 24.4665 133.312L76.0431 160.226ZM19.8798 126.584C19.895 126.553 19.9109 126.523 19.9275 126.493L58.4282 52.7123L58.3322 52.6622C54.9261 50.8848 50.6773 52.2201 48.9009 55.6243L11.1422 127.983C8.68963 132.683 9.70964 138.868 16.063 142.192L16.0635 142.192L70.5672 170.72L73.8735 164.384L22.2969 137.47C18.7393 135.613 17.4784 131.186 19.3106 127.675L19.8798 126.584Z" fill="#89D2DC"/>
<path d="M105.293 84.5668C104.097 82.681 101.991 80.5744 99.4472 78.5115C96.8637 76.4166 93.6836 74.2516 90.1962 72.2748C83.2753 68.3517 74.8706 65.0159 67.3179 64.6362C66.0236 64.5712 64.9223 65.5671 64.8581 66.8607C64.794 68.1544 65.7912 69.2558 67.0855 69.3209C73.5975 69.6482 81.2597 72.5998 87.8834 76.3544C91.1683 78.2165 94.13 80.2379 96.4922 82.1532C98.8937 84.1005 100.538 85.828 101.33 87.0763C102.024 88.1706 103.474 88.4959 104.568 87.803C105.662 87.11 105.987 85.6611 105.293 84.5668Z" fill="#89D2DC"/>
<path d="M97.3284 99.8337C96.1332 97.9451 94.0283 95.8366 91.4844 93.7725C88.9012 91.6764 85.7212 89.5107 82.2336 87.5338C75.3123 83.6106 66.9062 80.2766 59.3509 79.901C58.0566 79.8367 56.9559 80.8332 56.8924 82.1269C56.829 83.4206 57.8268 84.5214 59.1212 84.5858C65.6347 84.9095 73.2974 87.8591 79.9208 91.6135C83.2055 93.4754 86.1668 95.4971 88.5282 97.4132C90.929 99.3613 92.5722 101.09 93.3628 102.339C94.0558 103.434 95.5053 103.761 96.6004 103.069C97.6954 102.377 98.0214 100.929 97.3284 99.8337Z" fill="#89D2DC"/>
<path d="M89.3668 115.091C88.1715 113.202 86.066 111.094 83.5219 109.03C80.9384 106.935 77.758 104.77 74.2703 102.794C67.3486 98.8714 58.943 95.5379 51.3906 95.1582C50.0963 95.0932 48.9951 96.0891 48.9309 97.3827C48.8667 98.6764 49.8639 99.7778 51.1583 99.8428C57.6707 100.17 65.334 103.12 71.958 106.874C75.2431 108.735 78.2047 110.756 80.5664 112.672C82.9676 114.619 84.6107 116.347 85.4012 117.596C86.0941 118.691 87.5436 119.018 88.6387 118.326C89.7338 117.634 90.0598 116.186 89.3668 115.091Z" fill="#89D2DC"/>
<path d="M81.4052 130.348C80.2098 128.459 78.1044 126.351 75.5603 124.287C72.9768 122.192 69.7964 120.027 66.3087 118.051C59.3869 114.129 50.9814 110.795 43.429 110.415C42.1347 110.35 41.0334 111.346 40.9693 112.64C40.9051 113.933 41.9023 115.035 43.1966 115.1C49.7091 115.427 57.3724 118.377 63.9964 122.131C67.2815 123.992 70.2431 126.013 72.6048 127.929C75.006 129.876 76.6491 131.604 77.4396 132.853C78.1325 133.948 79.582 134.275 80.6771 133.583C81.7722 132.892 82.0982 131.443 81.4052 130.348Z" fill="#89D2DC"/>
<path d="M101.869 145.6C103.343 145.534 105.698 145.892 108.669 146.748C111.59 147.589 114.942 148.863 118.348 150.493C125.216 153.78 132.018 158.379 136.007 163.531C136.801 164.556 138.275 164.744 139.299 163.952C140.324 163.16 140.511 161.687 139.718 160.662C135.091 154.686 127.548 149.697 120.372 146.263C116.756 144.532 113.161 143.161 109.965 142.241C106.818 141.335 103.885 140.814 101.653 140.915C100.358 140.973 99.3572 142.07 99.4168 143.364C99.4764 144.658 100.574 145.659 101.869 145.6Z" fill="#89D2DC"/>
<path d="M109.83 130.343C111.304 130.276 113.66 130.635 116.63 131.491C119.552 132.332 122.904 133.606 126.31 135.236C133.177 138.523 139.98 143.122 143.969 148.274C144.762 149.299 146.236 149.487 147.261 148.695C148.285 147.902 148.473 146.43 147.68 145.405C143.052 139.428 135.51 134.44 128.334 131.006C124.718 129.275 121.123 127.904 117.927 126.984C114.78 126.077 111.847 125.556 109.614 125.657C108.32 125.716 107.319 126.813 107.378 128.107C107.438 129.4 108.536 130.402 109.83 130.343Z" fill="#89D2DC"/>
<path d="M171.453 54.2122C172.052 53.0641 171.606 51.6473 170.457 51.0476C169.308 50.448 167.891 50.8926 167.292 52.0407L164.446 57.4953C163.846 58.6434 164.292 60.0602 165.441 60.6599C166.59 61.2595 168.008 60.8149 168.607 59.6668L171.453 54.2122Z" fill="#89D2DC"/>
<path d="M146.67 47.6177C146.281 46.3819 144.963 45.6948 143.727 46.0829C142.491 46.4711 141.805 47.7875 142.194 49.0232L144.047 54.9079C144.437 56.1436 145.754 56.8308 146.99 56.4426C148.226 56.0545 148.913 54.7381 148.524 53.5023L146.67 47.6177Z" fill="#89D2DC"/>
<path d="M188.278 73.0691C189.514 72.6803 190.199 71.3635 189.81 70.128C189.42 68.8925 188.102 68.2061 186.866 68.5949L180.987 70.4446C179.751 70.8334 179.065 72.1502 179.455 73.3858C179.845 74.6213 181.163 75.3077 182.399 74.9188L188.278 73.0691Z" fill="#89D2DC"/>
</svg>
