<svg width="116" height="118" viewBox="0 0 116 118" fill="none" xmlns="http://www.w3.org/2000/svg">
<g clip-path="url(#clip0_494_17351)">
<path fill-rule="evenodd" clip-rule="evenodd" d="M13.9343 31.1603C13.5364 30.4984 13.7504 29.6393 14.4123 29.2414L24.2865 23.306C26.9922 21.6795 30.5072 22.5552 32.1337 25.261L32.2288 25.4192C32.6267 26.0811 32.4126 26.9402 31.7507 27.3381C31.0888 27.736 30.2296 27.522 29.8317 26.86L29.7366 26.7018C28.9059 25.3199 27.1093 24.8723 25.7273 25.703L15.8532 31.6384C15.1913 32.0363 14.3321 31.8222 13.9343 31.1603ZM-3.80042 49.3847L-0.613982 47.4693C0.0479374 47.0715 0.26198 46.2123 -0.135905 45.5504C-0.53379 44.8885 -1.39293 44.6744 -2.05485 45.0723L-5.64079 47.2279C-6.7422 47.8899 -7.10249 49.32 -6.43759 50.4261L12.5925 82.0845C12.9904 82.7464 13.8496 82.9605 14.5115 82.5626C15.1734 82.1647 15.3875 81.3056 14.9896 80.6437L-3.80042 49.3847ZM68.649 4.20322C68.2511 3.5413 68.4652 2.68216 69.1271 2.28427L72.1825 0.447648C73.2839 -0.214417 74.7158 0.138311 75.3807 1.24444L104.828 50.2332C105.493 51.3393 105.133 52.7693 104.031 53.4314L85.6511 64.48C84.9892 64.8779 84.1301 64.6638 83.7322 64.0019C83.3343 63.34 83.5483 62.4809 84.2102 62.083L102.191 51.2745L73.2239 3.08481L70.568 4.68129C69.906 5.07918 69.0469 4.86514 68.649 4.20322ZM33.3554 30.0091C34.0173 29.6112 34.8764 29.8253 35.2743 30.4872L39.7768 37.9776C40.1747 38.6395 39.9607 39.4986 39.2988 39.8965C38.6368 40.2944 37.7777 40.0803 37.3798 39.4184L32.8773 31.928C32.4794 31.2661 32.6935 30.407 33.3554 30.0091ZM40.7368 42.2889C41.3988 41.891 42.2579 42.105 42.6558 42.767L47.0339 50.0504C47.4318 50.7123 47.2178 51.5715 46.5558 51.9693C45.8939 52.3672 45.0348 52.1532 44.6369 51.4913L40.2588 44.2078C39.8609 43.5459 40.0749 42.6868 40.7368 42.2889ZM47.9914 54.3576C48.6534 53.9597 49.5125 54.1737 49.9104 54.8356L54.3519 62.2245C54.7498 62.8865 54.5357 63.7456 53.8738 64.1435C53.2119 64.5414 52.3528 64.3273 51.9549 63.6654L47.5134 56.2765C47.1155 55.6146 47.3295 54.7555 47.9914 54.3576ZM16.4326 85.7586C17.0946 85.3607 17.9537 85.5748 18.3516 86.2367L25.1669 97.5746L37.2284 90.3244L35.0657 86.7266C34.6679 86.0647 34.8819 85.2055 35.5438 84.8076C36.2057 84.4098 37.0649 84.6238 37.4628 85.2857L44.3477 96.7395L46.1586 93.5822C46.3998 93.1616 46.8417 92.8959 47.3263 92.8802L50.9642 92.7623L44.1426 81.414C43.7447 80.7521 43.9587 79.8929 44.6207 79.4951C45.2826 79.0972 46.1417 79.3112 46.5396 79.9731L48.6388 83.4653L56.5825 78.6902L54.5574 75.3213C54.1595 74.6594 54.3736 73.8002 55.0355 73.4024C55.6974 73.0045 56.5565 73.2185 56.9544 73.8804L59.366 77.8924C59.3759 77.8939 59.3858 77.8954 59.3956 77.897C60.3186 78.0445 61.2603 78.029 62.1779 77.8513L62.1785 77.8511C63.0911 77.6748 63.971 77.3402 64.7787 76.8547L65.3092 76.5358C66.9242 75.565 68.1436 74.0551 68.755 72.2713C68.7582 72.2617 68.7615 72.2521 68.7649 72.2426L66.2158 68.002C65.818 67.3401 66.032 66.481 66.6939 66.0831C67.3558 65.6852 68.215 65.8992 68.6129 66.5611L70.7754 70.1588L78.6172 65.445C79.2791 65.0471 80.1382 65.2612 80.5361 65.9231C80.934 66.585 80.72 67.4441 80.0581 67.842L71.6021 72.925C71.5084 72.9814 71.4377 73.0691 71.4025 73.1727L71.4014 73.1757C70.5772 75.5824 68.9315 77.6216 66.7501 78.9328L66.2195 79.2518C65.1288 79.9074 63.9404 80.3592 62.7091 80.5971L62.4438 79.2241L62.7097 80.597C62.7095 80.597 62.7093 80.5971 62.7091 80.5971C61.4702 80.837 60.1989 80.8577 58.9528 80.6585L58.9508 80.6581C58.8411 80.6404 58.7305 80.6622 58.6383 80.7176L50.0796 85.8623L54.588 93.3624C54.8435 93.7874 54.8548 94.316 54.6176 94.7515C54.3805 95.1871 53.9304 95.4644 53.4348 95.4805L48.1965 95.6503L45.5891 100.197C45.3424 100.627 44.8863 100.894 44.3904 100.899C43.8945 100.904 43.433 100.646 43.1776 100.221L38.6693 92.7214L26.2083 100.212C25.1069 100.874 23.6749 100.521 23.01 99.415L15.9546 87.6776C15.5567 87.0157 15.7707 86.1565 16.4326 85.7586Z" fill="#89D2DC"/>
<path fill-rule="evenodd" clip-rule="evenodd" d="M-1.77246 42.2335L10.2606 35.0003C10.9225 34.6024 11.1365 33.7433 10.7387 33.0814C10.3408 32.4195 9.48164 32.2054 8.81972 32.6033L-3.61283 40.0766C-4.7158 40.7396 -5.07263 42.1719 -4.40963 43.2749L24.6825 91.6723C25.3455 92.7753 26.7777 93.1321 27.8807 92.4691L58.684 73.953C59.787 73.29 60.1438 71.8577 59.4808 70.7547L57.3983 67.2903C57.0004 66.6283 56.1413 66.4143 55.4794 66.8122C54.8174 67.2101 54.6034 68.0692 55.0013 68.7311L56.8437 71.7961L26.8394 89.8319L-1.77246 42.2335ZM38.4575 18.0509C37.0756 18.8816 36.628 20.6783 37.4587 22.0602L37.5759 22.2552C37.9738 22.9171 37.7597 23.7762 37.0978 24.1741C36.4359 24.572 35.5767 24.358 35.1789 23.6961L35.0617 23.5011C33.4352 20.7953 34.3109 17.2804 37.0167 15.6539L64.9164 -1.11687C66.0194 -1.77987 67.4516 -1.42304 68.1147 -0.320073L77.1825 14.7652C77.5804 15.4271 77.3664 16.2862 76.7045 16.6841C76.0425 17.082 75.1834 16.868 74.7855 16.2061L65.9578 1.5203L38.4575 18.0509ZM38.8508 27.089C39.5127 26.6911 40.3719 26.9052 40.7698 27.5671L45.1031 34.776C45.501 35.438 45.287 36.2971 44.6251 36.695C43.9631 37.0929 43.104 36.8788 42.7061 36.2169L38.3727 29.0079C37.9749 28.346 38.1889 27.4869 38.8508 27.089ZM46.1689 39.2633C46.8308 38.8654 47.69 39.0795 48.0879 39.7414L52.3602 46.8489C52.7581 47.5108 52.5441 48.3699 51.8821 48.7678C51.2202 49.1657 50.3611 48.9517 49.9632 48.2897L45.6908 41.1823C45.2929 40.5203 45.507 39.6612 46.1689 39.2633ZM78.6256 19.8802C79.2875 19.4823 80.1467 19.6963 80.5446 20.3582L97.2068 48.0774C97.8698 49.1804 97.5129 50.6126 96.41 51.2756L65.6066 69.7918C64.5037 70.4548 63.0714 70.0979 62.4084 68.995L60.2413 65.3898C59.8434 64.7279 60.0575 63.8688 60.7194 63.4709C61.3813 63.073 62.2405 63.2871 62.6384 63.949L64.5653 67.1546L94.5696 49.1187L78.1475 21.7991C77.7497 21.1372 77.9637 20.278 78.6256 19.8802ZM53.4023 51.2967C54.0642 50.8988 54.9233 51.1128 55.3212 51.7748L59.6993 59.0582C60.0972 59.7201 59.8832 60.5793 59.2213 60.9771C58.5593 61.375 57.7002 61.161 57.3023 60.4991L52.9242 53.2156C52.5263 52.5537 52.7403 51.6946 53.4023 51.2967Z" fill="#89D2DC"/>
<path fill-rule="evenodd" clip-rule="evenodd" d="M30.8986 28.5263C30.4091 28.8206 30.2508 29.4559 30.5451 29.9453C30.8393 30.4348 31.4746 30.5931 31.964 30.2989L39.5904 25.7146C40.0799 25.4204 40.2381 24.785 39.9439 24.2956C39.6497 23.8061 39.0144 23.6479 38.5249 23.9421L30.8986 28.5263ZM28.148 31.3862C27.058 29.5729 27.6444 27.2193 29.4577 26.1293L37.0841 21.545C38.8974 20.4551 41.251 21.0414 42.341 22.8547C43.4309 24.668 42.8446 27.0216 41.0313 28.1116L33.4049 32.6959C31.5916 33.7859 29.238 33.1995 28.148 31.3862ZM6.70044 45.8437L11.612 54.0146L29.1668 43.4622L24.2553 35.2914L6.70044 45.8437ZM3.79929 45.121C3.94872 44.5212 4.33029 44.0053 4.86006 43.6869L23.2139 32.6542C23.7437 32.3358 24.3782 32.2408 24.978 32.3902C25.5778 32.5397 26.0937 32.9213 26.4121 33.451L31.8038 42.4206C31.8039 42.4207 31.8039 42.4208 31.804 42.4208C31.9616 42.6831 32.0661 42.9738 32.1114 43.2764C32.1568 43.5791 32.142 43.8878 32.0681 44.1848C31.9941 44.4818 31.8624 44.7613 31.6804 45.0074C31.4984 45.2535 31.2697 45.4613 31.0073 45.619L12.6533 56.6517C12.1236 56.9702 11.489 57.0651 10.8892 56.9157C10.2894 56.7663 9.77355 56.3847 9.4551 55.8549L4.06327 46.8851C3.74482 46.3553 3.64986 45.7208 3.79929 45.121ZM44.3331 21.5908C43.9353 20.9289 44.1493 20.0698 44.8112 19.6719L57.0151 12.3361C57.677 11.9382 58.5362 12.1522 58.934 12.8141C59.3319 13.476 59.1179 14.3352 58.456 14.7331L46.2521 22.0689C45.5902 22.4668 44.731 22.2528 44.3331 21.5908ZM47.0562 26.1209C46.6583 25.459 46.8724 24.5998 47.5343 24.202L67.4861 12.2087C68.148 11.8109 69.0072 12.0249 69.4051 12.6868C69.8029 13.3487 69.5889 14.2079 68.927 14.6058L48.9751 26.599C48.3132 26.9969 47.4541 26.7828 47.0562 26.1209ZM38.2553 40.7649C37.7658 41.0591 37.6075 41.6944 37.9017 42.1839C38.196 42.6733 38.8313 42.8316 39.3207 42.5374L46.9471 37.9531C47.4366 37.6589 47.5948 37.0236 47.3006 36.5341C47.0064 36.0447 46.3711 35.8864 45.8816 36.1806L38.2553 40.7649ZM35.5047 43.6248C34.4147 41.8115 35.0011 39.4579 36.8144 38.3679L44.4408 33.7836C46.254 32.6936 48.6077 33.28 49.6976 35.0933C50.7876 36.9066 50.2013 39.2602 48.388 40.3502L40.7616 44.9344C38.9483 46.0244 36.5947 45.438 35.5047 43.6248ZM53.803 31.9163L62.0525 45.6401L79.6073 35.0877L71.3578 21.364L53.803 31.9163ZM50.9019 31.1935C51.0513 30.5937 51.4329 30.0779 51.9626 29.7594L70.3165 18.7268C70.8462 18.4084 71.4808 18.3134 72.0806 18.4628C72.6804 18.6123 73.1963 18.9938 73.5147 19.5236L82.2444 34.0464C82.5629 34.5761 82.6579 35.2107 82.5084 35.8105C82.359 36.4103 81.9774 36.9262 81.4477 37.2446L63.0938 48.2772C62.5641 48.5957 61.9295 48.6906 61.3297 48.5412C60.7299 48.3918 60.214 48.0102 59.8956 47.4804L51.1658 32.9577C50.8474 32.4279 50.7524 31.7933 50.9019 31.1935ZM13.419 62.4493C13.0211 61.7874 13.2352 60.9282 13.8971 60.5303L23.8732 54.5336C24.5351 54.1358 25.3942 54.3498 25.7921 55.0117C26.19 55.6736 25.976 56.5328 25.3141 56.9307L15.338 62.9274C14.6761 63.3253 13.8169 63.1112 13.419 62.4493ZM16.1421 66.9793C15.7442 66.3174 15.9582 65.4583 16.6202 65.0604L36.5722 53.0671C37.2341 52.6692 38.0932 52.8832 38.4911 53.5452C38.889 54.2071 38.6749 55.0662 38.013 55.4641L18.061 67.4574C17.3991 67.8553 16.54 67.6413 16.1421 66.9793ZM45.6119 53.0033C45.1224 53.2975 44.9641 53.9328 45.2583 54.4223C45.5526 54.9117 46.1879 55.07 46.6773 54.7758L54.3037 50.1915C54.7931 49.8973 54.9514 49.262 54.6572 48.7725C54.363 48.2831 53.7277 48.1248 53.2382 48.419L45.6119 53.0033ZM42.8613 55.8631C41.7713 54.0499 42.3577 51.6962 44.171 50.6063L51.7974 46.022C53.6106 44.932 55.9643 45.5184 57.0542 47.3317C58.1442 49.145 57.5579 51.4986 55.7446 52.5886L48.1182 57.1728C46.3049 58.2628 43.9513 57.6764 42.8613 55.8631ZM22.7432 72.5323L27.6547 80.7031L45.2095 70.1508L40.298 61.98L22.7432 72.5323ZM19.842 71.8096C19.9914 71.2098 20.373 70.6939 20.9028 70.3755L39.2566 59.3428C39.7864 59.0244 40.421 58.9294 41.0208 59.0788C41.6206 59.2283 42.1364 59.6098 42.4549 60.1396L47.8466 69.1092C47.8466 69.1093 47.8467 69.1094 47.8467 69.1094C48.0044 69.3717 48.1088 69.6624 48.1542 69.965C48.1995 70.2677 48.1848 70.5764 48.1108 70.8734C48.0369 71.1704 47.9051 71.4499 47.7231 71.696C47.5411 71.9421 47.3124 72.1499 47.0501 72.3076L28.6961 83.3403C28.1663 83.6588 27.5317 83.7537 26.9319 83.6043C26.3321 83.4549 25.8163 83.0733 25.4978 82.5435L20.106 73.5737C19.7875 73.0439 19.6926 72.4094 19.842 71.8096ZM64.1102 54.4919C63.7123 53.83 63.9264 52.9708 64.5883 52.5729L76.7922 45.2371C77.4541 44.8392 78.3132 45.0532 78.7111 45.7152C79.109 46.3771 78.895 47.2362 78.233 47.6341L66.0292 54.97C65.3672 55.3678 64.5081 55.1538 64.1102 54.4919ZM52.9686 65.2418C52.4791 65.536 52.3208 66.1714 52.615 66.6608C52.9092 67.1503 53.5446 67.3086 54.034 67.0144L61.6604 62.4301C62.1498 62.1359 62.3081 61.5005 62.0139 61.0111C61.7197 60.5216 61.0844 60.3634 60.5949 60.6576L52.9686 65.2418ZM50.218 68.1017C49.128 66.2884 49.7144 63.9348 51.5277 62.8448L59.154 58.2605C60.9673 57.1706 63.321 57.7569 64.4109 59.5702C65.5009 61.3835 64.9146 63.7371 63.1013 64.8271L55.4749 69.4114C53.6616 70.5014 51.308 69.915 50.218 68.1017ZM66.7283 58.8473C66.3304 58.1854 66.5444 57.3262 67.2064 56.9283L87.1582 44.9351C87.8201 44.5372 88.6793 44.7513 89.0771 45.4132C89.475 46.0751 89.261 46.9342 88.5991 47.3321L68.6472 59.3253C67.9853 59.7232 67.1262 59.5092 66.7283 58.8473Z" fill="#89D2DC"/>
</g>
<defs>
<clipPath id="clip0_494_17351">
<rect width="95.4624" height="95.4624" fill="white" transform="translate(-15 36.1816) rotate(-31.0104)"/>
</clipPath>
</defs>
</svg>
