<svg width="103" height="112" viewBox="0 0 103 112" fill="none" xmlns="http://www.w3.org/2000/svg">
<path d="M83.2183 51.8007L78.9606 59.9925L82.8793 58.2234L85.5757 53.0357L87.4247 54.0044C88.0756 54.3454 88.8785 54.0926 89.2179 53.4396C89.5573 52.7866 89.3047 51.9808 88.6537 51.6397L85.6285 50.0548L85.6261 50.0535L85.6237 50.0523L82.4788 48.4046C81.8278 48.0636 81.025 48.3165 80.6856 48.9695C80.3462 49.6224 80.5988 50.4283 81.2497 50.7693L83.2183 51.8007Z" fill="#89D2DC"/>
<path fill-rule="evenodd" clip-rule="evenodd" d="M98.8476 43.5135C97.6532 40.5696 95.2889 38.2367 92.502 36.8244C89.7561 35.3381 86.4988 34.7259 83.411 35.4263C80.2806 36.1365 77.4283 38.1751 75.5476 41.7815C75.3469 42.1666 75.1724 42.5443 75.0214 42.9152C73.0964 42.4054 71.4359 42.1328 70.0597 42.0992C68.086 39.4042 63.9398 36.0203 57.497 32.1836C56.8655 31.8075 56.0501 32.0161 55.6757 32.6496C55.3014 33.283 55.5099 34.1014 56.1414 34.4775C62.44 38.2284 66.1481 41.3386 67.8135 43.5371L45.061 87.3125C44.055 86.1679 42.7542 84.9542 41.2601 83.7382C38.9493 81.8577 36.0951 79.9069 32.9589 78.1227C27.3428 74.9277 20.6965 72.196 14.5525 71.4331L36.6741 28.8717C37.2068 27.8468 37.513 27.7507 37.7458 27.7081C37.9516 27.6703 38.2607 27.6682 38.7771 27.7403C39.286 27.8114 39.8931 27.9378 40.6927 28.1043L40.7258 28.1111L40.7259 28.1112C43.5506 28.6996 46.3588 29.6413 50.4661 31.5155C51.1345 31.8205 51.9224 31.5241 52.2259 30.8536C52.5294 30.183 52.2335 29.3921 51.5651 29.0871C47.3361 27.1574 44.3357 26.1389 41.2644 25.4991L41.1696 25.4794C40.424 25.3241 39.7399 25.1816 39.1416 25.098C38.5186 25.0111 37.8824 24.9707 37.2661 25.0837C35.8622 25.3412 35.0185 26.2936 34.3278 27.6156L34.2733 27.587C31.04 25.8931 27.0283 27.1611 25.3442 30.4014L3.95408 71.5554C1.93905 75.4322 2.86959 80.6101 7.86734 83.2351L7.8676 83.2352L39.9228 100.08L39.9254 100.081L52.8434 106.832C53.4947 107.173 54.2973 106.919 54.636 106.266C54.9748 105.612 54.7214 104.807 54.07 104.466L42.3326 98.3323L44.2057 94.7285L73.4236 110.036C75.4363 111.09 77.9077 110.245 78.9471 108.245L79.2695 107.625C79.2789 107.608 79.2879 107.591 79.2965 107.573L101.107 65.6101L101.157 65.6364C103.088 66.648 103.846 69.0677 102.841 71.0024L81.4508 112.157C80.0618 114.829 76.8527 116.364 73.2534 114.483L73.2532 114.483L59.5375 107.319C58.8861 106.979 58.0836 107.233 57.745 107.887C57.4065 108.54 57.6601 109.345 58.3115 109.686L72.0269 116.849L72.0271 116.849C77.0254 119.461 81.7928 117.269 83.8081 113.392L105.198 72.2374C106.883 68.9957 105.618 64.9649 102.386 63.2717L102.336 63.2455C103.021 61.9206 103.317 60.6808 102.723 59.3769C102.463 58.8046 102.066 58.3035 101.638 57.8399C101.226 57.3943 100.717 56.9116 100.162 56.3853L100.096 56.3223L100.095 56.3212C99.3688 55.6286 98.609 54.961 97.7812 54.2964C97.9084 54.0816 98.0325 53.8578 98.1533 53.6247C100.024 50.0131 100.058 46.4982 98.8476 43.5135ZM77.1368 44.9341C77.1383 44.9294 77.1397 44.9246 77.1412 44.9198C77.1461 44.9032 77.1507 44.8865 77.1549 44.8699C77.324 44.2777 77.5673 43.6643 77.9033 43.0197C79.436 40.0807 81.6562 38.5599 83.999 38.0285C86.378 37.4888 88.9877 37.9484 91.2554 39.1798C91.267 39.1862 91.2787 39.1923 91.2905 39.1982C93.596 40.3627 95.4652 42.2498 96.3854 44.5179C97.2916 46.7516 97.3189 49.4498 95.7943 52.3929C95.5327 52.8978 95.2542 53.345 94.96 53.7446C94.9478 53.7596 94.9358 53.7749 94.9241 53.7906C94.9126 53.8061 94.9014 53.8218 94.8906 53.8377C93.4527 55.7389 91.6494 56.5403 89.6259 57.392C89.5588 57.4202 89.4914 57.4485 89.4238 57.4769C87.2598 58.3858 84.8113 59.4141 82.992 62.1046L81.3179 61.2275L82.8793 58.2234L78.9606 59.9925L77.291 59.1178C78.4486 56.0807 77.8884 53.476 77.3932 51.174C77.3778 51.102 77.3623 51.0304 77.347 50.959C76.9089 48.9148 76.5474 47.06 77.1368 44.9341ZM74.3031 45.4836C72.6064 45.0367 71.2343 44.8161 70.171 44.7718L47.4181 88.5479C48.9293 88.7219 50.6657 89.0992 52.5145 89.6345C55.3729 90.4622 58.5992 91.697 61.8507 93.2594C67.6736 96.0574 73.707 99.9688 77.846 104.593L99.9677 62.0317C100.5 61.0068 100.404 60.7001 100.305 60.4838C100.218 60.2926 100.043 60.0365 99.6878 59.6521C99.3379 59.273 98.8862 58.8445 98.2913 58.2801L98.291 58.2798L98.2907 58.2796L98.2677 58.2577L98.265 58.2552C97.6111 57.6313 96.9268 57.0285 96.1799 56.4262C94.4531 58.2374 92.4569 59.0941 90.6556 59.8522L90.6041 59.8739C88.3892 60.806 86.5484 61.5807 85.179 63.6219C86.3645 65.0114 86.663 67.044 85.7718 68.7586C84.6017 71.01 81.8162 71.8781 79.5769 70.7049L72.2175 66.8493C69.9727 65.6732 69.0953 62.8845 70.2648 60.6344C71.156 58.9199 72.9856 58.0009 74.8007 58.1837C75.6848 55.8888 75.265 53.9299 74.7597 51.573L74.748 51.5181C74.3638 49.7255 73.9525 47.7432 74.3031 45.4836ZM75.2327 61.0481C74.2889 60.5536 73.1125 60.9261 72.6222 61.8694C72.1332 62.8102 72.5004 63.9889 73.4466 64.4846L80.8059 68.3403C81.7492 68.8344 82.9262 68.4631 83.4145 67.5236C83.9041 66.5816 83.533 65.3966 82.5921 64.9037L75.2327 61.0481ZM76.5202 107.131C72.7309 102.564 66.7102 98.5515 60.7039 95.6654C57.5713 94.1601 54.4824 92.9804 51.7792 92.1977C49.4763 91.5309 47.5218 91.1724 46.0837 91.1153L45.4347 92.3638L74.6527 107.671C75.2733 107.997 76.1024 107.785 76.5202 107.131ZM43.0774 91.1288L43.7265 89.88C42.8582 88.729 41.4481 87.3248 39.5864 85.8098C37.4011 84.0314 34.6706 82.1622 31.6491 80.4433C25.8557 77.1474 19.1342 74.4839 13.2375 73.9763C12.9401 74.6969 13.2414 75.4975 13.8596 75.8214L43.0774 91.1288ZM11.2612 71.995C11.2699 71.9774 11.2789 71.96 11.2883 71.9429L33.0987 29.9802L33.0443 29.9517C31.1147 28.9408 28.7078 29.7003 27.7015 31.6364L6.31141 72.7904C4.92208 75.4634 5.49991 78.9815 9.09905 80.8718L9.09931 80.8719L39.9754 97.097L41.8483 93.4935L12.6305 78.186C10.6152 77.1302 9.90086 74.6122 10.9388 72.6153L11.2612 71.995Z" fill="#89D2DC"/>
<path d="M59.6472 48.0975C58.9696 47.025 57.7769 45.8268 56.3357 44.6535C54.8721 43.4621 53.0707 42.2307 51.0951 41.1064C47.1744 38.8751 42.4132 36.9779 38.1346 36.762C37.4014 36.725 36.7775 37.2914 36.7412 38.0272C36.7048 38.7629 37.2698 39.3894 38.003 39.4264C41.692 39.6125 46.0326 41.2913 49.7849 43.4267C51.6457 44.4857 53.3236 45.6354 54.6617 46.7248C56.0221 47.8323 56.9536 48.8148 57.4022 49.5248C57.7954 50.1472 58.6167 50.3322 59.2366 49.9381C59.8566 49.544 60.0404 48.7199 59.6472 48.0975Z" fill="#89D2DC"/>
<path d="M55.1354 56.7806C54.4583 55.7064 53.2659 54.5072 51.8248 53.3333C50.3615 52.1411 48.56 50.9094 46.5843 49.785C42.6634 47.5536 37.9014 45.6574 33.6214 45.4438C32.8882 45.4072 32.2646 45.974 32.2287 46.7098C32.1927 47.4456 32.758 48.0717 33.4912 48.1083C37.1811 48.2924 41.522 49.97 45.2741 52.1053C47.1349 53.1643 48.8124 54.3142 50.1501 55.4039C51.5102 56.5119 52.441 57.495 52.889 58.2055C53.2815 58.8283 54.1027 59.0142 54.723 58.6207C55.3433 58.2272 55.528 57.4034 55.1354 56.7806Z" fill="#89D2DC"/>
<path d="M50.6252 65.4581C49.9481 64.3838 48.7554 63.1847 47.3141 62.0112C45.8506 60.8193 44.0489 59.5881 42.0731 58.464C38.152 56.2333 33.3903 54.3373 29.1119 54.1214C28.3787 54.0844 27.7549 54.6508 27.7185 55.3866C27.6822 56.1223 28.2471 56.7488 28.9803 56.7858C32.6695 56.972 37.0108 58.6497 40.7632 60.7845C42.6242 61.8433 44.302 62.9927 45.6399 64.0822C47.0001 65.1898 47.9309 66.1726 48.3787 66.883C48.7713 67.5058 49.5924 67.6917 50.2128 67.2983C50.8331 66.9048 51.0178 66.0809 50.6252 65.4581Z" fill="#89D2DC"/>
<path d="M46.115 74.1357C45.4379 73.0613 44.2451 71.8623 42.8039 70.6887C41.3404 69.4969 39.5387 68.2656 37.5629 67.1415C33.6418 64.9108 28.8801 63.0149 24.6017 62.7989C23.8685 62.7619 23.2447 63.3284 23.2083 64.0641C23.1719 64.7999 23.7369 65.4263 24.4701 65.4633C28.1593 65.6495 32.5006 67.3273 36.253 69.4621C38.114 70.5208 39.7918 71.6703 41.1297 72.7597C42.4899 73.8674 43.4207 74.8501 43.8685 75.5605C44.2611 76.1833 45.0822 76.3692 45.7025 75.9758C46.3229 75.5823 46.5076 74.7585 46.115 74.1357Z" fill="#89D2DC"/>
<path d="M57.7075 82.8104C58.5425 82.7725 59.8769 82.9766 61.5597 83.4632C63.2147 83.9417 65.1134 84.666 67.0429 85.5931C70.9334 87.4625 74.7869 90.0781 77.0468 93.0085C77.4963 93.5913 78.3312 93.6985 78.9116 93.2479C79.4921 92.7973 79.5983 91.9596 79.1488 91.3768C76.5275 87.9777 72.2548 85.1404 68.1896 83.1871C66.1412 82.2029 64.1047 81.4233 62.2941 80.8998C60.5113 80.3842 58.8497 80.0879 57.5852 80.1454C56.8519 80.1788 56.2847 80.8024 56.3185 81.5383C56.3523 82.2743 56.9741 82.8438 57.7075 82.8104Z" fill="#89D2DC"/>
<path d="M62.2177 74.1329C63.0527 74.095 64.3871 74.299 66.0699 74.7856C67.7249 75.2642 69.6237 75.9885 71.5531 76.9156C75.4436 78.785 79.2971 81.4006 81.557 84.331C82.0065 84.9138 82.8414 85.021 83.4218 84.5704C84.0023 84.1198 84.1085 83.282 83.6591 82.6992C81.0377 79.3001 76.765 76.4629 72.6998 74.5096C70.6514 73.5253 68.6149 72.7458 66.8043 72.2222C65.0215 71.7067 63.3599 71.4104 62.0954 71.4679C61.3621 71.5013 60.7949 72.1249 60.8287 72.8608C60.8625 73.5967 61.4843 74.1663 62.2177 74.1329Z" fill="#89D2DC"/>
<path d="M97.1267 30.8333C97.4661 30.1803 97.2135 29.3745 96.5625 29.0334C95.9116 28.6924 95.1087 28.9453 94.7693 29.5982L93.1569 32.7006C92.8175 33.3535 93.0701 34.1594 93.721 34.5004C94.372 34.8414 95.1748 34.5886 95.5142 33.9356L97.1267 30.8333Z" fill="#89D2DC"/>
<path d="M83.0872 27.0826C82.8667 26.3798 82.1204 25.989 81.4201 26.2098C80.7199 26.4305 80.331 27.1792 80.5515 27.882L81.6014 31.229C81.8219 31.9318 82.5683 32.3226 83.2685 32.1018C83.9688 31.8811 84.3577 31.1324 84.1372 30.4296L83.0872 27.0826Z" fill="#89D2DC"/>
<path d="M106.658 41.5582C107.358 41.337 107.746 40.5881 107.525 39.8854C107.305 39.1827 106.558 38.7923 105.858 39.0135L102.527 40.0655C101.827 40.2866 101.439 41.0356 101.66 41.7383C101.881 42.441 102.627 42.8314 103.327 42.6102L106.658 41.5582Z" fill="#89D2DC"/>
</svg>
